<svg width="32" height="21" viewBox="0 0 32 21" xmlns="http://www.w3.org/2000/svg"><g fill="#CD1F26" fill-rule="evenodd"><path d="M29.272.953c-.506.225-.9-.01-1.517 1.257-1.94 3.987-3.45 7.223-5.25 11.88.053-3.824.737-6.868 1.145-10.59.075-.688.18-1.633.165-2.346-.012-.548-.558-.62-1.658-.078-.612.302-1.348.277-1.63 1.004-1.195 3.097-3.956 11.707-5.238 16.576-.31 1.17.85 1.366 1.197.166.843-2.9 2.77-9.323 3.917-12.63-.115 3.028-.94 7.813-.555 10.324.12.79.857 1.13 1.236 1.8.27.475.703.523.94-.127 1.123-3.064 3.308-8.464 5.416-12.784-.413 1.9-1.998 9.97-2.44 13.187-.088.646.704.662 1.406 1.633.157.218.763.455.872-.103.375-1.93 2.822-14.458 3.78-18.438.258-1.072.184-1.612-1.79-.733m-16.005 9.104c.843-1.257 1.086-1.002 1.29-1.385.252-.477.085-.93-.817-.817 0 0-.34.025-.968.096 1-2.57 1.872-4.753 2.502-6.41.213-.565.24-.977-.108-1.06-.373-.09-1.45.492-2.115.606-.21.036-.414.26-.484.42A190.712 190.712 0 0 0 9.728 8.39c-1.055.18-2.29.416-3.67.726.99-2.536 1.99-5.036 2.962-7.446C9.5.488 8.24.376 7.75 1.577a441.612 441.612 0 0 0-3.148 7.88c-.97.24-1.996.51-3.07.82-.782.226-.816.434-.478.9.188.263.572.237.748.423.456.48.732 1.057 1.547 1.144a206.53 206.53 0 0 0-2.115 5.88c-.413 1.21.764 1.46 1.217.177.73-2.065 1.498-4.157 2.288-6.243.658-.153 2.25-.496 3.723-.815-1.168 3.2-1.937 5.63-2.226 6.813-.056.227.037.353.084.446.396.574.77.597 1.278 1.306a.428.428 0 0 0 .755-.178 231.115 231.115 0 0 1 3.23-9.08c.432-.095 1.207-.283 1.683-.99"/><path d="M14.062 15.046a6.46 6.46 0 0 0-.236.22 85.602 85.602 0 0 1-.268-.837c.255-.314.5-.62.71-.946.868-1.352-.85-2.13-1.59-1.253-.394.47-.296.93-.187 1.323l.15.506c-.21.215-.463.486-.8.877-.84.974-.61 2.24.288 2.518.547.17 1.056-.082 1.498-.474.02.057.044.12.064.17.234.588.96.41.683-.3-.047-.12-.11-.294-.176-.484a9.27 9.27 0 0 0 .388-.53c.535-.795.018-1.26-.523-.79zm-.57-1.86c-.08.092-.157.173-.233.252-.02-.063-.04-.134-.053-.184-.25-.944.832-.686.285-.068zm-.586 2.874c-.328.2-.59-.015-.148-.62.074-.103.152-.192.23-.29.073.227.15.457.227.685a2.694 2.694 0 0 1-.31.225z"/></g></svg>