<svg xmlns:xlink="http://www.w3.org/1999/xlink" xmlns="http://www.w3.org/2000/svg" viewBox="0 0 50 50" width="50"  height="50" ><circle cx="25" cy="25" r="24.5" style="" fill="#0032A0"></circle><path d="M13.828,20.722h-2.1v4.457c-1.84-1.65-3.676-3.3-5.561-4.947v9.046h2.1V24.821c1.752,1.555,3.633,3.3,5.562,4.947Zm4.657,8.553h-2.1V20.722h2.1Zm5.443.49c-1.488-2.8-2.978-6.017-4.466-9.046h2.364l2.1,4.634,2.022-4.634h2.316c-1.442,3.037-2.888,6.242-4.333,9.049Zm10.977-7.174H31.351v1.476h3.558v1.866H31.351V27.4h3.558v1.866h-5.66V20.716h5.66Zm5.336-2.359c-1.445,2.852-2.89,5.927-4.335,9.046H38.1l.437-1.025h3.421l.439,1.025H44.67C43.172,26.159,41.684,23.04,40.241,20.232Zm-1.089,6.416,1.089-2.488,1.052,2.488Z" style="" fill="#FFFFFF"></path></svg>